# xmcd CD database file generated by Grip 2.91
# 
# Track frame offsets:
#       150
#       16201
#       32710
#       54719
#       71159
#       89758
#       105380
#       118575
#       133368
#       150643
#       168276
#       184379
#       200578
#       217089
#       233237
#       252407
#       272108
#       290120
#       307384
# 
# Disc length: 4381 seconds
# 
# Revision: 3
# Processed by: cddbd v1.4b41PL1 Copyright (c) Steve Scherf et al.
# Submitted via: Grip 2.91
# 
DISCID=32111b13
DTITLE=Shania Twain - Come On Over
DYEAR=1900
DGENRE=
TTITLE0=You're Still The One
TTITLE1=When
TTITLE2=From This Moment On
TTITLE3=Black Eyes, Blue Tears
TTITLE4=I Won't Leave You Lonely
TTITLE5=I'm Holdin' On To Love (To Save My Life)
TTITLE6=Come On Over
TTITLE7=You've Got A Way
TTITLE8=Whatever You Do! Don't!
TTITLE9=Man! I Feel Like A Woman!
TTITLE10=Love Gets Me Every Time
TTITLE11=Don't Be Stupid (You Know I Love You)
TTITLE12=That Don't Impress Me Much
TTITLE13=Honey, I'm Home
TTITLE14=If You Wanna Touch Her, Ask!
TTITLE15=Rock This Country!
TTITLE16=That's Don't Impress Me Much 9Dance Mix Edit)
TTITLE17=God Bless The Child (Single Mix)
TTITLE18=Don't Be Stupid (You Know I Love You) (Extended Danec Mix)
EXTD=
EXTT0=
EXTT1=
EXTT2=
EXTT3=
EXTT4=
EXTT5=
EXTT6=
EXTT7=
EXTT8=
EXTT9=
EXTT10=
EXTT11=
EXTT12=
EXTT13=
EXTT14=
EXTT15=
EXTT16=
EXTT17=
EXTT18=
PLAYORDER=
